<?xml version="1.0" encoding="utf-8"?>
<!-- Generator: Adobe Illustrator 24.1.3, SVG Export Plug-In . SVG Version: 6.00 Build 0)  -->
<svg version="1.1" xmlns="http://www.w3.org/2000/svg" xmlns:xlink="http://www.w3.org/1999/xlink" x="0px" y="0px"
	 viewBox="0 0 1200 700" style="enable-background:new 0 0 1200 700;" xml:space="preserve">
<style type="text/css">
	.st0{fill:#FC4E2A;stroke:#000000;}
	.st1{fill:#ECE7F2;stroke:#000000;}
	.st2{fill:#1D91C0;stroke:#000000;}
	.st3{font-family:'FranklinGothic-Medium';}
	.st4{font-size:20px;}
	.st5{fill:none;stroke:#000000;stroke-width:0.25;}
	.st6{font-size:18.2991px;}
	.st7{fill:none;stroke:#000000;stroke-width:0.9273;}
	.st8{font-size:22px;}
	.st9{font-size:24px;}
	.st10{opacity:0.2;fill:none;stroke:#000000;stroke-width:0.9273;enable-background:new    ;}
	.st11{fill:#FC4E2A;stroke:#000000;stroke-width:0.9273;}
	.st12{fill:#ECE7F2;stroke:#000000;stroke-width:0.9273;}
	.st13{fill:#1D91C0;stroke:#000000;stroke-width:0.9273;}
	.st14{font-family:'FranklinGothic-MediumItalic';}
	.st15{font-size:17px;}
	.st16{font-size:34px;}
</style>
<g id="layer_0">
</g>
<g id="Layer_1">
	<defs  xmlns="http://www.w3.org/1999/xhtml">
		<style  type="text/css">
			<![CDATA[
body { font-family: sans-serif; }
text { font-size: 20px; }
text.x-title { font-weight: bold; }
.grid-line { stroke: black; opacity: 0.2; }
.lollipop-line { stroke: black; stroke-width: 1px; }
circle { stroke-width: 1px; stroke: black; }
circle.lollipop-rep { fill: rgb(252, 78, 42); }
.lollipop-dem { fill: rgb(29, 145, 192); }
.lollipop-ind { fill: rgb(236, 231, 242); }
				]]>
		</style>
	</defs>
	<defs  xmlns="http://www.w3.org/1999/xhtml">
		<style  type="text/css"></style>
	</defs>
	<circle class="st0" cx="1045.6" cy="280" r="8"/>
	<circle class="st1" cx="1045.6" cy="311" r="8"/>
	<circle class="st2" cx="1045.6" cy="342" r="8"/>
	<text transform="matrix(1 0 0 1 1058 286.1047)" class="st3 st4">Republicans</text>
	<text transform="matrix(1 0 0 1 1058 319)" class="st3 st4">Independents</text>
	<text transform="matrix(1 0 0 1 1058 350)" class="st3 st4">Democrats</text>
	<g transform="translate(0,22.126436781609197)">
		<line class="st5" x1="207" y1="117.1" x2="207" y2="117.1"/>
		<text transform="matrix(1.0272 0 0 1 100.7835 122.9085)" class="st3 st6">Government</text>
	</g>
	<g transform="translate(0,64.272030651341)">
		<line class="st5" x1="207" y1="113.5" x2="207" y2="113.5"/>
		<text transform="matrix(1.0272 0 0 1 102.8762 119.3244)" class="st3 st6">Coronavirus</text>
	</g>
	<line class="st5" x1="207" y1="216.3" x2="207" y2="216.3"/>
	<text transform="matrix(1.0272 0 0 1 76.7459 222.1575)" class="st3 st6">Race Relations</text>
	<line class="st5" x1="207" y1="254.9" x2="207" y2="254.9"/>
	<text transform="matrix(1.0272 0 0 1 125.8582 260.7191)" class="st3 st6">Economy</text>
	<line class="st5" x1="207" y1="293.4" x2="207" y2="293.4"/>
	<text transform="matrix(1.0272 0 0 1 153.0164 299.2801)" class="st3 st6">Media</text>
	<line class="st5" x1="207" y1="332" x2="207" y2="332"/>
	<text transform="matrix(1.0272 0 0 1 154.0906 337.8416)" class="st3 st6">Crime</text>
	<line class="st5" x1="207" y1="370.5" x2="207" y2="370.5"/>
	<text transform="matrix(1.0272 0 0 1 64.2268 376.4026)" class="st3 st6">Decaying Morals</text>
	<line class="st5" x1="207" y1="409.1" x2="207" y2="409.1"/>
	<text transform="matrix(1.0272 0 0 1 77.8015 414.9642)" class="st3 st6">Unemployment</text>
	<line class="st5" x1="207" y1="447.7" x2="207" y2="447.7"/>
	<text transform="matrix(1.0272 0 0 1 24.513 453.5257)" class="st3 st6">Unification of Country</text>
	<line class="st5" x1="207" y1="486.2" x2="207" y2="486.2"/>
	<text transform="matrix(1.0272 0 0 1 69.4309 492.0872)" class="st3 st6">Lack of Respect</text>
	<line class="st5" x1="207" y1="524.8" x2="207" y2="524.8"/>
	<text transform="matrix(1.0272 0 0 1 79.8943 530.6478)" class="st3 st6">Police Brutality</text>
	<line class="st5" x1="207" y1="563.4" x2="207" y2="563.4"/>
	<text transform="matrix(1.0272 0 0 1 113.3118 569.2093)" class="st3 st6">Healthcare</text>
	<line class="st5" x1="207" y1="601.9" x2="207" y2="601.9"/>
	<text transform="matrix(1.0272 0 0 1 105.2991 607.7708)" class="st3 st6">Wealth Gap</text>
	<path class="st7" d="M211.4,113.4v5.9h798.9v-5.9"/>
	<line class="st7" x1="211.4" y1="118.9" x2="211.4" y2="113.4"/>
	<text transform="matrix(1.0272 0 0 1 203.1663 111.7)" class="st3 st8">0</text>
	<line class="st7" x1="268.5" y1="118.9" x2="268.5" y2="113.4"/>
	<text transform="matrix(1.0272 0 0 1 252.3899 111.7)" class="st3 st8">2.0</text>
	<line class="st7" x1="325.5" y1="118.9" x2="325.5" y2="113.4"/>
	<text transform="matrix(1.0272 0 0 1 309.4519 111.7)" class="st3 st8">4.0</text>
	<line class="st7" x1="382.6" y1="118.9" x2="382.6" y2="113.4"/>
	<text transform="matrix(1.0272 0 0 1 366.5139 111.7)" class="st3 st8">6.0</text>
	<line class="st7" x1="439.6" y1="118.9" x2="439.6" y2="113.4"/>
	<text transform="matrix(1.0272 0 0 1 423.576 111.7)" class="st3 st8">8.0</text>
	<line class="st7" x1="496.7" y1="118.9" x2="496.7" y2="113.4"/>
	<text transform="matrix(1.0272 0 0 1 483.2488 111.7)" class="st3 st8">10</text>
	<line class="st7" x1="553.8" y1="118.9" x2="553.8" y2="113.4"/>
	<text transform="matrix(1.0272 0 0 1 540.3108 111.7)" class="st3 st8">12</text>
	<line class="st7" x1="610.8" y1="118.9" x2="610.8" y2="113.4"/>
	<text transform="matrix(1.0272 0 0 1 597.3723 111.7)" class="st3 st8">14</text>
	<line class="st7" x1="667.9" y1="118.9" x2="667.9" y2="113.4"/>
	<text transform="matrix(1.0272 0 0 1 654.4348 111.7)" class="st3 st8">16</text>
	<line class="st7" x1="725" y1="118.9" x2="725" y2="113.4"/>
	<text transform="matrix(1.0272 0 0 1 711.4963 111.7)" class="st3 st8">18</text>
	<line class="st7" x1="782" y1="118.9" x2="782" y2="113.4"/>
	<text transform="matrix(1.0272 0 0 1 768.5588 111.7)" class="st3 st8">20</text>
	<line class="st7" x1="839.1" y1="118.9" x2="839.1" y2="113.4"/>
	<text transform="matrix(1.0272 0 0 1 825.6204 111.7)" class="st3 st8">22</text>
	<line class="st7" x1="896.1" y1="118.9" x2="896.1" y2="113.4"/>
	<text transform="matrix(1.0272 0 0 1 882.6819 111.7)" class="st3 st8">24</text>
	<line class="st7" x1="953.2" y1="118.9" x2="953.2" y2="113.4"/>
	<text transform="matrix(1.0272 0 0 1 939.7444 111.7)" class="st3 st8">26</text>
	<line class="st7" x1="1010.3" y1="118.9" x2="1010.3" y2="113.4"/>
	<text transform="matrix(1.0272 0 0 1 996.8059 111.7)" class="st3 st8">28% </text>
	<text transform="matrix(1 0 0 1 1037.6431 254.8629)" class="st3 st9">Political Party</text>
	<path class="st10" d="M268.5,118.9v503.2"/>
	<path class="st10" d="M325.5,118.9v503.2"/>
	<path class="st10" d="M382.6,118.9v503.2"/>
	<path class="st10" d="M439.6,118.9v503.2"/>
	<path class="st10" d="M496.7,118.9v503.2"/>
	<path class="st10" d="M553.8,118.9v503.2"/>
	<path class="st10" d="M610.8,118.9v503.2"/>
	<path class="st10" d="M667.9,118.9v503.2"/>
	<path class="st10" d="M725,118.9v503.2"/>
	<path class="st10" d="M782,118.9v503.2"/>
	<path class="st10" d="M839.1,118.9v503.2"/>
	<path class="st10" d="M896.1,118.9v503.2"/>
	<path class="st10" d="M953.2,118.9v503.2"/>
	<path class="st10" d="M1010.3,118.9v503.2"/>
	<path class="st7" d="M208.3,118.9"/>
	<ellipse class="st11" cx="724.9" cy="139.2" rx="7.5" ry="7.3"/>
	<ellipse class="st12" cx="781.9" cy="139.2" rx="7.5" ry="7.3"/>
	<ellipse class="st13" cx="924.6" cy="139.2" rx="7.5" ry="7.3"/>
	<path class="st13" d="M208.3,118.9"/>
	<ellipse class="st11" cx="696.3" cy="177.7" rx="7.5" ry="7.3"/>
	<ellipse class="st12" cx="724.9" cy="177.7" rx="7.5" ry="7.3"/>
	<ellipse class="st13" cx="924.6" cy="177.7" rx="7.5" ry="7.3"/>
	<path class="st13" d="M208.3,118.9"/>
	<ellipse class="st11" cx="496.6" cy="216.3" rx="7.5" ry="7.3"/>
	<ellipse class="st12" cx="781.9" cy="216.3" rx="7.5" ry="7.3"/>
	<ellipse class="st13" cx="981.6" cy="216.3" rx="7.5" ry="7.3"/>
	<path class="st13" d="M208.3,118.9"/>
	<ellipse class="st11" cx="553.7" cy="254.9" rx="7.5" ry="7.3"/>
	<ellipse class="st12" cx="468.1" cy="254.9" rx="7.5" ry="7.3"/>
	<ellipse class="st13" cx="325.4" cy="254.9" rx="7.5" ry="7.3"/>
	<path class="st13" d="M208.3,118.9"/>
	<ellipse class="st11" cx="382.5" cy="293.4" rx="7.5" ry="7.3"/>
	<ellipse class="st12" cx="239.8" cy="293.4" rx="7.5" ry="7.3"/>
	<ellipse class="st13" cx="225.6" cy="293.4" rx="7.5" ry="7.3"/>
	<path class="st13" d="M208.3,118.9"/>
	<ellipse class="st11" cx="382.5" cy="332" rx="7.5" ry="7.3"/>
	<ellipse class="st12" cx="296.9" cy="332" rx="7.5" ry="7.3"/>
	<ellipse class="st13" cx="239.8" cy="332" rx="7.5" ry="7.3"/>
	<path class="st13" d="M208.3,118.9"/>
	<ellipse class="st11" cx="382.5" cy="370.5" rx="7.5" ry="7.3"/>
	<ellipse class="st12" cx="268.4" cy="370.5" rx="7.5" ry="7.3"/>
	<ellipse class="st13" cx="239.8" cy="370.5" rx="7.5" ry="7.3"/>
	<path class="st13" d="M208.3,118.9"/>
	<ellipse class="st11" cx="354" cy="409.1" rx="7.5" ry="7.3"/>
	<ellipse class="st12" cx="296.9" cy="409.1" rx="7.5" ry="7.3"/>
	<ellipse class="st13" cx="411" cy="409.1" rx="7.5" ry="7.3"/>
	<path class="st13" d="M208.3,118.9"/>
	<ellipse class="st11" cx="354" cy="447.7" rx="7.5" ry="7.3"/>
	<ellipse class="st12" cx="325.4" cy="447.7" rx="7.5" ry="7.3"/>
	<ellipse class="st13" cx="296.9" cy="447.7" rx="7.5" ry="7.3"/>
	<path class="st13" d="M208.3,118.9"/>
	<ellipse class="st11" cx="268.4" cy="486.2" rx="7.5" ry="7.3"/>
	<ellipse class="st12" cx="354" cy="486.2" rx="7.5" ry="7.3"/>
	<ellipse class="st13" cx="325.4" cy="486.2" rx="7.5" ry="7.3"/>
	<path class="st13" d="M208.3,118.9"/>
	<ellipse class="st11" cx="268.4" cy="524.8" rx="7.5" ry="7.3"/>
	<ellipse class="st12" cx="325.4" cy="524.8" rx="7.5" ry="7.3"/>
	<ellipse class="st13" cx="239.8" cy="524.8" rx="7.5" ry="7.3"/>
	<path class="st13" d="M208.3,118.9"/>
	<ellipse class="st11" cx="268.4" cy="563.4" rx="7.5" ry="7.3"/>
	<ellipse class="st12" cx="296.9" cy="563.4" rx="7.5" ry="7.3"/>
	<ellipse class="st13" cx="325.4" cy="563.4" rx="7.5" ry="7.3"/>
	<path class="st13" d="M208.3,118.9"/>
	<ellipse class="st11" cx="239.8" cy="601.9" rx="7.5" ry="7.3"/>
	<ellipse class="st12" cx="296.9" cy="601.9" rx="7.5" ry="7.3"/>
	<ellipse class="st13" cx="325.4" cy="601.9" rx="7.5" ry="7.3"/>
	<text transform="matrix(1 0 0 1 210.452 644)" class="st14 st15">Data from Gallup survey of 1024 adults, phrased as an open question; June 10, 2020. Graphic by @NikoMcCarty.</text>
	<path class="st10" d="M211.4,118.9v503.2"/>
	<text transform="matrix(1 0 0 1 100.7835 78.8257)" class="st14 st16">The most important issue facing America, according to American adults.</text>
</g>
</svg>
