<?xml version="1.0" encoding="utf-8"?>
<!-- Generator: Adobe Illustrator 24.1.3, SVG Export Plug-In . SVG Version: 6.00 Build 0)  -->
<svg version="1.1" id="Layer_1" xmlns="http://www.w3.org/2000/svg" xmlns:xlink="http://www.w3.org/1999/xlink" x="0px" y="0px"
	 viewBox="0 0 1200 700" style="enable-background:new 0 0 1200 700;" xml:space="preserve">
<style type="text/css">
	.st0{fill:#FC4E2A;stroke:#000000;}
	.st1{fill:#1D91C0;stroke:#000000;}
	.st2{font-family:'ArialMT';}
	.st3{font-size:20px;}
	.st4{fill:none;stroke:#000000;}
	.st5{font-family:'Arial-BoldMT';}
	.st6{opacity:0.2;fill:none;stroke:#000000;enable-background:new    ;}
	.st7{stroke:#000000;}
	.st8{opacity:0.8;fill:#FC4E2A;stroke:#000000;enable-background:new    ;}
	.st9{opacity:0.8;fill:#1D91C0;stroke:#000000;enable-background:new    ;}
	.st10{font-family:'Arial-ItalicMT';}
	.st11{font-size:17px;}
</style>
<defs  xmlns="http://www.w3.org/1999/xhtml">
	<style  type="text/css">
		<![CDATA[
body { font-family: sans-serif; }
text { font-size: 20px; }
text.x-title { font-weight: bold; }
.grid-line { stroke: black; opacity: 0.2; }
.lollipop-line { stroke: black; stroke-width: 1px; }
circle { stroke-width: 1px; stroke: black; }
circle.lollipop-rep { fill: rgb(252, 78, 42); }
.lollipop-dem { fill: rgb(29, 145, 192); }
			]]>
	</style>
</defs>
<circle class="st0" cx="644" cy="43" r="8"/>
<circle class="st1" cx="804" cy="43" r="8"/>
<text transform="matrix(1 0 0 1 654 50)" class="st2 st3">Republicans</text>
<text transform="matrix(1 0 0 1 814 50)" class="st2 st3">Democrats</text>
<line class="st4" x1="288" y1="128.7" x2="288" y2="128.7"/>
<text transform="matrix(1 0 0 1 112.7148 135.1313)" class="st2 st3">U.S. Postal Service</text>
<line class="st4" x1="288" y1="183.5" x2="288" y2="183.5"/>
<text transform="matrix(1 0 0 1 241.6699 189.8577)" class="st2 st3">CDC</text>
<line class="st4" x1="288" y1="238.2" x2="288" y2="238.2"/>
<text transform="matrix(1 0 0 1 147.1387 244.5841)" class="st2 st3">Census Bureau</text>
<line class="st4" x1="288" y1="292.9" x2="288" y2="292.9"/>
<text transform="matrix(1 0 0 1 242.7734 299.3105)" class="st2 st3">HHS</text>
<line class="st4" x1="288" y1="347.6" x2="288" y2="347.6"/>
<text transform="matrix(1 0 0 1 40.4394 354.0368)" class="st2 st3">Dept. of Homeland Security</text>
<line class="st4" x1="288" y1="402.4" x2="288" y2="402.4"/>
<text transform="matrix(1 0 0 1 137.1582 408.7632)" class="st2 st3">Federal Reserve</text>
<line class="st4" x1="288" y1="457.1" x2="288" y2="457.1"/>
<text transform="matrix(1 0 0 1 251.6602 463.4895)" class="st2 st3">IRS</text>
<line class="st4" x1="288" y1="511.8" x2="288" y2="511.8"/>
<text transform="matrix(1 0 0 1 145.2832 518.2159)" class="st2 st3">Veterans Affairs</text>
<line class="st4" x1="288" y1="566.5" x2="288" y2="566.5"/>
<text transform="matrix(1 0 0 1 147.1582 572.9423)" class="st2 st3">Dept. of Justice</text>
<line class="st4" x1="288" y1="621.3" x2="288" y2="621.3"/>
<text transform="matrix(1 0 0 1 251.6602 627.6687)" class="st2 st3">ICE</text>
<path class="st4" d="M300.5,94v6.5h800V94"/>
<g transform="translate(0.5,0)">
	<line class="st4" x1="300" y1="100" x2="300" y2="94"/>
	<text transform="matrix(1 0 0 1 294.4385 91)" class="st2 st3">0</text>
</g>
<g transform="translate(80.5,0)">
	<line class="st4" x1="300" y1="100" x2="300" y2="94"/>
	<text transform="matrix(1 0 0 1 288.877 91)" class="st2 st3">10</text>
</g>
<g transform="translate(160.5,0)">
	<line class="st4" x1="300" y1="100" x2="300" y2="94"/>
	<text transform="matrix(1 0 0 1 288.877 91)" class="st2 st3">20</text>
</g>
<g transform="translate(240.5,0)">
	<line class="st4" x1="300" y1="100" x2="300" y2="94"/>
	<text transform="matrix(1 0 0 1 288.877 91)" class="st2 st3">30</text>
</g>
<g transform="translate(320.5,0)">
	<line class="st4" x1="300" y1="100" x2="300" y2="94"/>
	<text transform="matrix(1 0 0 1 288.877 91)" class="st2 st3">40</text>
</g>
<g transform="translate(400.5,0)">
	<line class="st4" x1="300" y1="100" x2="300" y2="94"/>
	<text transform="matrix(1 0 0 1 288.877 91)" class="st2 st3">50</text>
</g>
<g transform="translate(480.5,0)">
	<line class="st4" x1="300" y1="100" x2="300" y2="94"/>
	<text transform="matrix(1 0 0 1 288.877 91)" class="st2 st3">60</text>
</g>
<g transform="translate(560.5,0)">
	<line class="st4" x1="300" y1="100" x2="300" y2="94"/>
	<text transform="matrix(1 0 0 1 288.877 91)" class="st2 st3">70</text>
</g>
<g transform="translate(640.5,0)">
	<line class="st4" x1="300" y1="100" x2="300" y2="94"/>
	<text transform="matrix(1 0 0 1 288.877 91)" class="st2 st3">80</text>
</g>
<g transform="translate(720.5,0)">
	<line class="st4" x1="300" y1="100" x2="300" y2="94"/>
	<text transform="matrix(1 0 0 1 288.877 91)" class="st2 st3">90</text>
</g>
<g transform="translate(800.5,0)">
	<line class="st4" x1="300" y1="100" x2="300" y2="94"/>
	<text transform="matrix(1 0 0 1 283.3154 91)" class="st2 st3">100</text>
</g>
<text transform="matrix(1 0 0 1 487.8623 50)" class="st5 st3">Political Party</text>
<path class="st6" d="M380.5,100v550"/>
<path class="st6" d="M460.5,100v550"/>
<path class="st6" d="M540.5,100v550"/>
<path class="st6" d="M620.5,100v550"/>
<path class="st6" d="M700.5,100v550"/>
<path class="st6" d="M780.5,100v550"/>
<path class="st6" d="M860.5,100v550"/>
<path class="st6" d="M940.5,100v550"/>
<path class="st6" d="M1020.5,100v550"/>
<path class="st6" d="M1100.5,100v550"/>
<g>
	<path class="st7" d="M1028,128.7L1028,128.7"/>
	<circle class="st8" cx="1028" cy="128.7" r="8"/>
	<circle class="st9" cx="1028" cy="128.7" r="8"/>
</g>
<g>
	<path class="st7" d="M916,183.5h56"/>
	<circle class="st8" cx="972" cy="183.5" r="8"/>
	<circle class="st9" cx="916" cy="183.5" r="8"/>
</g>
<g>
	<path class="st7" d="M908,238.2h56"/>
	<circle class="st8" cx="964" cy="238.2" r="8"/>
	<circle class="st9" cx="908" cy="238.2" r="8"/>
</g>
<g>
	<path class="st7" d="M860,292.9h80"/>
	<circle class="st8" cx="940" cy="292.9" r="8"/>
	<circle class="st9" cx="860" cy="292.9" r="8"/>
</g>
<g>
	<path class="st7" d="M780,347.6h208"/>
	<circle class="st8" cx="988" cy="347.6" r="8"/>
	<circle class="st9" cx="780" cy="347.6" r="8"/>
</g>
<g>
	<path class="st7" d="M820,402.4h88"/>
	<circle class="st8" cx="908" cy="402.4" r="8"/>
	<circle class="st9" cx="820" cy="402.4" r="8"/>
</g>
<g>
	<path class="st7" d="M820,457.1h24"/>
	<circle class="st8" cx="844" cy="457.1" r="8"/>
	<circle class="st9" cx="820" cy="457.1" r="8"/>
</g>
<g>
	<path class="st7" d="M788,511.8h88"/>
	<circle class="st8" cx="876" cy="511.8" r="8"/>
	<circle class="st9" cx="788" cy="511.8" r="8"/>
</g>
<g>
	<path class="st7" d="M700,566.5h208"/>
	<circle class="st8" cx="908" cy="566.5" r="8"/>
	<circle class="st9" cx="700" cy="566.5" r="8"/>
</g>
<g>
	<path class="st7" d="M524,621.3h392"/>
	<circle class="st8" cx="916" cy="621.3" r="8"/>
	<circle class="st9" cx="524" cy="621.3" r="8"/>
</g>
<g transform="translate(0,521.2686567164179)">
	<line class="st4" x1="331.3" y1="147" x2="331.3" y2="147"/>
	<text transform="matrix(1 0 0 1 294.9385 153.3652)" class="st10 st11">Favorability of government institutions; data from Pew Research Center, April 9, 2020. Graphic: @NikoMcCarty</text>
</g>
<path class="st6" d="M300.5,100v550"/>
</svg>
