<?xml version="1.0" standalone="no"?><!DOCTYPE svg PUBLIC "-//W3C//DTD SVG 1.1//EN" "http://www.w3.org/Graphics/SVG/1.1/DTD/svg11.dtd"><svg width="1200" height="700" version="1.1" xmlns:xlink="http://www.w3.org/1999/xlink" xmlns="http://www.w3.org/2000/svg"><defs xmlns="http://www.w3.org/1999/xhtml"><style type="text/css"><![CDATA[
body { font-family: sans-serif; }
text { font-size: 20px; }
text.x-title { font-weight: bold; }
.grid-line { stroke: black; opacity: 0.2; }
.lollipop-line { stroke: black; stroke-width: 1px; }
circle { stroke-width: 1px; stroke: black; }
circle.lollipop-rep { fill: rgb(252, 78, 42); }
.lollipop-dem { fill: rgb(29, 145, 192); }
.lollipop-ind { fill: rgb(236, 231, 242); }]]></style></defs><defs xmlns="http://www.w3.org/1999/xhtml"><style type="text/css"></style></defs><g transform="translate(250,100)"><g><circle cx="395" cy="-54" r="8" class="lollipop-rep"/><circle cx="555" cy="-54" r="8" class="lollipop-ind"/><circle cx="715" cy="-54" r="8" class="lollipop-dem"/><text x="405" y="-50">Republicans</text><text x="565" y="-50">Independents</text><text x="725" y="-50">Democrats</text></g><g transform="translate(-12, 0)" fill="none" font-size="10" font-family="sans-serif" text-anchor="end"><g class="tick" opacity="1" transform="translate(0,22.126436781609197)"><line stroke="currentColor" x2="0"/><text fill="currentColor" x="-3" dy="0.32em">Government</text></g><g class="tick" opacity="1" transform="translate(0,64.272030651341)"><line stroke="currentColor" x2="0"/><text fill="currentColor" x="-3" dy="0.32em">Coronavirus</text></g><g class="tick" opacity="1" transform="translate(0,106.41762452107281)"><line stroke="currentColor" x2="0"/><text fill="currentColor" x="-3" dy="0.32em">Race Relations</text></g><g class="tick" opacity="1" transform="translate(0,148.5632183908046)"><line stroke="currentColor" x2="0"/><text fill="currentColor" x="-3" dy="0.32em">Economy</text></g><g class="tick" opacity="1" transform="translate(0,190.7088122605364)"><line stroke="currentColor" x2="0"/><text fill="currentColor" x="-3" dy="0.32em">Media</text></g><g class="tick" opacity="1" transform="translate(0,232.85440613026822)"><line stroke="currentColor" x2="0"/><text fill="currentColor" x="-3" dy="0.32em">Crime</text></g><g class="tick" opacity="1" transform="translate(0,275)"><line stroke="currentColor" x2="0"/><text fill="currentColor" x="-3" dy="0.32em">Decaying Morals</text></g><g class="tick" opacity="1" transform="translate(0,317.14559386973184)"><line stroke="currentColor" x2="0"/><text fill="currentColor" x="-3" dy="0.32em">Unemployment</text></g><g class="tick" opacity="1" transform="translate(0,359.2911877394636)"><line stroke="currentColor" x2="0"/><text fill="currentColor" x="-3" dy="0.32em">Unification of Country</text></g><g class="tick" opacity="1" transform="translate(0,401.4367816091954)"><line stroke="currentColor" x2="0"/><text fill="currentColor" x="-3" dy="0.32em">Lack of Respect</text></g><g class="tick" opacity="1" transform="translate(0,443.58237547892725)"><line stroke="currentColor" x2="0"/><text fill="currentColor" x="-3" dy="0.32em">Police Brutality</text></g><g class="tick" opacity="1" transform="translate(0,485.72796934865903)"><line stroke="currentColor" x2="0"/><text fill="currentColor" x="-3" dy="0.32em">Healthcare</text></g><g class="tick" opacity="1" transform="translate(0,527.8735632183908)"><line stroke="currentColor" x2="0"/><text fill="currentColor" x="-3" dy="0.32em">Wealth Gap</text></g></g><g fill="none" font-size="10" font-family="sans-serif" text-anchor="middle"><path class="domain" stroke="currentColor" d="M0.5,-6V0.5H850.5V-6"/><g class="tick" opacity="1" transform="translate(0.5,0)"><line stroke="currentColor" y2="-6"/><text fill="currentColor" y="-9" dy="0em">0</text></g><g class="tick" opacity="1" transform="translate(61.21428571428571,0)"><line stroke="currentColor" y2="-6"/><text fill="currentColor" y="-9" dy="0em">2.0</text></g><g class="tick" opacity="1" transform="translate(121.92857142857142,0)"><line stroke="currentColor" y2="-6"/><text fill="currentColor" y="-9" dy="0em">4.0</text></g><g class="tick" opacity="1" transform="translate(182.64285714285714,0)"><line stroke="currentColor" y2="-6"/><text fill="currentColor" y="-9" dy="0em">6.0</text></g><g class="tick" opacity="1" transform="translate(243.35714285714283,0)"><line stroke="currentColor" y2="-6"/><text fill="currentColor" y="-9" dy="0em">8.0</text></g><g class="tick" opacity="1" transform="translate(304.07142857142856,0)"><line stroke="currentColor" y2="-6"/><text fill="currentColor" y="-9" dy="0em">10</text></g><g class="tick" opacity="1" transform="translate(364.7857142857143,0)"><line stroke="currentColor" y2="-6"/><text fill="currentColor" y="-9" dy="0em">12</text></g><g class="tick" opacity="1" transform="translate(425.5,0)"><line stroke="currentColor" y2="-6"/><text fill="currentColor" y="-9" dy="0em">14</text></g><g class="tick" opacity="1" transform="translate(486.21428571428567,0)"><line stroke="currentColor" y2="-6"/><text fill="currentColor" y="-9" dy="0em">16</text></g><g class="tick" opacity="1" transform="translate(546.9285714285714,0)"><line stroke="currentColor" y2="-6"/><text fill="currentColor" y="-9" dy="0em">18</text></g><g class="tick" opacity="1" transform="translate(607.6428571428571,0)"><line stroke="currentColor" y2="-6"/><text fill="currentColor" y="-9" dy="0em">20</text></g><g class="tick" opacity="1" transform="translate(668.3571428571429,0)"><line stroke="currentColor" y2="-6"/><text fill="currentColor" y="-9" dy="0em">22</text></g><g class="tick" opacity="1" transform="translate(729.0714285714286,0)"><line stroke="currentColor" y2="-6"/><text fill="currentColor" y="-9" dy="0em">24</text></g><g class="tick" opacity="1" transform="translate(789.7857142857143,0)"><line stroke="currentColor" y2="-6"/><text fill="currentColor" y="-9" dy="0em">26</text></g><g class="tick" opacity="1" transform="translate(850.5,0)"><line stroke="currentColor" y2="-6"/><text fill="currentColor" y="-9" dy="0em">28</text></g><text class="x-title" x="305" y="-50" fill="black">Political Party</text><path class="grid-line" d="M61.21428571428571,0L61.21428571428571,550"/><path class="grid-line" d="M121.92857142857142,0L121.92857142857142,550"/><path class="grid-line" d="M182.64285714285714,0L182.64285714285714,550"/><path class="grid-line" d="M243.35714285714283,0L243.35714285714283,550"/><path class="grid-line" d="M304.07142857142856,0L304.07142857142856,550"/><path class="grid-line" d="M364.7857142857143,0L364.7857142857143,550"/><path class="grid-line" d="M425.5,0L425.5,550"/><path class="grid-line" d="M486.21428571428567,0L486.21428571428567,550"/><path class="grid-line" d="M546.9285714285714,0L546.9285714285714,550"/><path class="grid-line" d="M607.6428571428571,0L607.6428571428571,550"/><path class="grid-line" d="M668.3571428571429,0L668.3571428571429,550"/><path class="grid-line" d="M729.0714285714286,0L729.0714285714286,550"/><path class="grid-line" d="M789.7857142857143,0L789.7857142857143,550"/><path class="grid-line" d="M850.5,0L850.5,550"/></g><g class="lollipops"><g class="lollipop"><path class="lollipop-line" d="MNaN,NaNLNaN,NaN"/><circle class="lollipop-rep" r="8" cx="546.4285714285714" cy="22.126436781609197"/><circle class="lollipop-ind" r="8" cx="607.1428571428571" cy="22.126436781609197"/><circle class="lollipop-dem" r="8" cx="758.9285714285714" cy="22.126436781609197"/></g><g class="lollipop"><path class="lollipop-line" d="MNaN,NaNLNaN,NaN"/><circle class="lollipop-rep" r="8" cx="516.0714285714286" cy="64.272030651341"/><circle class="lollipop-ind" r="8" cx="546.4285714285714" cy="64.272030651341"/><circle class="lollipop-dem" r="8" cx="758.9285714285714" cy="64.272030651341"/></g><g class="lollipop"><path class="lollipop-line" d="MNaN,NaNLNaN,NaN"/><circle class="lollipop-rep" r="8" cx="303.57142857142856" cy="106.41762452107281"/><circle class="lollipop-ind" r="8" cx="607.1428571428571" cy="106.41762452107281"/><circle class="lollipop-dem" r="8" cx="819.6428571428571" cy="106.41762452107281"/></g><g class="lollipop"><path class="lollipop-line" d="MNaN,NaNLNaN,NaN"/><circle class="lollipop-rep" r="8" cx="364.2857142857143" cy="148.5632183908046"/><circle class="lollipop-ind" r="8" cx="273.2142857142857" cy="148.5632183908046"/><circle class="lollipop-dem" r="8" cx="121.42857142857142" cy="148.5632183908046"/></g><g class="lollipop"><path class="lollipop-line" d="MNaN,NaNLNaN,NaN"/><circle class="lollipop-rep" r="8" cx="182.14285714285714" cy="190.7088122605364"/><circle class="lollipop-ind" r="8" cx="30.357142857142854" cy="190.7088122605364"/><circle class="lollipop-dem" r="8" cx="15.178571428571427" cy="190.7088122605364"/></g><g class="lollipop"><path class="lollipop-line" d="MNaN,NaNLNaN,NaN"/><circle class="lollipop-rep" r="8" cx="182.14285714285714" cy="232.85440613026822"/><circle class="lollipop-ind" r="8" cx="91.07142857142857" cy="232.85440613026822"/><circle class="lollipop-dem" r="8" cx="30.357142857142854" cy="232.85440613026822"/></g><g class="lollipop"><path class="lollipop-line" d="MNaN,NaNLNaN,NaN"/><circle class="lollipop-rep" r="8" cx="182.14285714285714" cy="275"/><circle class="lollipop-ind" r="8" cx="60.71428571428571" cy="275"/><circle class="lollipop-dem" r="8" cx="30.357142857142854" cy="275"/></g><g class="lollipop"><path class="lollipop-line" d="MNaN,NaNLNaN,NaN"/><circle class="lollipop-rep" r="8" cx="151.78571428571428" cy="317.14559386973184"/><circle class="lollipop-ind" r="8" cx="91.07142857142857" cy="317.14559386973184"/><circle class="lollipop-dem" r="8" cx="212.5" cy="317.14559386973184"/></g><g class="lollipop"><path class="lollipop-line" d="MNaN,NaNLNaN,NaN"/><circle class="lollipop-rep" r="8" cx="151.78571428571428" cy="359.2911877394636"/><circle class="lollipop-ind" r="8" cx="121.42857142857142" cy="359.2911877394636"/><circle class="lollipop-dem" r="8" cx="91.07142857142857" cy="359.2911877394636"/></g><g class="lollipop"><path class="lollipop-line" d="MNaN,NaNLNaN,NaN"/><circle class="lollipop-rep" r="8" cx="60.71428571428571" cy="401.4367816091954"/><circle class="lollipop-ind" r="8" cx="151.78571428571428" cy="401.4367816091954"/><circle class="lollipop-dem" r="8" cx="121.42857142857142" cy="401.4367816091954"/></g><g class="lollipop"><path class="lollipop-line" d="MNaN,NaNLNaN,NaN"/><circle class="lollipop-rep" r="8" cx="60.71428571428571" cy="443.58237547892725"/><circle class="lollipop-ind" r="8" cx="121.42857142857142" cy="443.58237547892725"/><circle class="lollipop-dem" r="8" cx="30.357142857142854" cy="443.58237547892725"/></g><g class="lollipop"><path class="lollipop-line" d="MNaN,NaNLNaN,NaN"/><circle class="lollipop-rep" r="8" cx="60.71428571428571" cy="485.72796934865903"/><circle class="lollipop-ind" r="8" cx="91.07142857142857" cy="485.72796934865903"/><circle class="lollipop-dem" r="8" cx="121.42857142857142" cy="485.72796934865903"/></g><g class="lollipop"><path class="lollipop-line" d="MNaN,NaNLNaN,NaN"/><circle class="lollipop-rep" r="8" cx="30.357142857142854" cy="527.8735632183908"/><circle class="lollipop-ind" r="8" cx="91.07142857142857" cy="527.8735632183908"/><circle class="lollipop-dem" r="8" cx="121.42857142857142" cy="527.8735632183908"/></g></g></g></svg>